<?xml version="1.0" standalone="no"?><!DOCTYPE svg PUBLIC "-//W3C//DTD SVG 1.1//EN" "http://www.w3.org/Graphics/SVG/1.1/DTD/svg11.dtd"><svg t="1741532795299" class="icon" viewBox="0 0 1024 1024" version="1.1" xmlns="http://www.w3.org/2000/svg" p-id="1909" width="16" height="16" xmlns:xlink="http://www.w3.org/1999/xlink"><path d="M819.09127 511.999488a31.840764 31.840764 0 0 0-10.545333-23.547832L316.703393 10.328284a33.78602 33.78602 0 0 0-48.631392 0L215.345333 61.621605A31.943146 31.943146 0 0 0 204.79999999 85.169437c0 8.90722299 3.480984 16.790628 10.545333 23.650214L630.196705 511.999488 215.345333 915.179325a31.943146 31.943146 0 0 0-10.545333 23.547832c0 8.90722299 3.480984 16.790628 10.54533299 23.547832l52.72666801 51.395703a33.78602 33.78602 0 0 0 48.631392 0l491.84254401-478.123372A32.045528 32.045528 0 0 0 819.09127 511.999488z" p-id="1910" fill="#e6e6e6"></path></svg>
